<svg width="13" height="12" viewBox="0 0 13 12" fill="none" xmlns="http://www.w3.org/2000/svg">
<path d="M12.5306 6.53061L8.03063 11.0306C7.88973 11.1715 7.69863 11.2507 7.49938 11.2507C7.30012 11.2507 7.10902 11.1715 6.96813 11.0306C6.82723 10.8897 6.74807 10.6986 6.74807 10.4994C6.74807 10.3001 6.82723 10.109 6.96813 9.96811L10.1875 6.74999H1C0.801088 6.74999 0.610322 6.67097 0.46967 6.53032C0.329018 6.38967 0.25 6.1989 0.25 5.99999C0.25 5.80108 0.329018 5.61031 0.46967 5.46966C0.610322 5.329 0.801088 5.24999 1 5.24999H10.1875L6.96937 2.02999C6.82848 1.88909 6.74932 1.69799 6.74932 1.49874C6.74932 1.29948 6.82848 1.10838 6.96937 0.967487C7.11027 0.826591 7.30137 0.747437 7.50062 0.747437C7.69988 0.747437 7.89098 0.826591 8.03187 0.967487L12.5319 5.46749C12.6018 5.53726 12.6573 5.62016 12.6951 5.71142C12.7329 5.80269 12.7523 5.90052 12.7522 5.99931C12.752 6.09809 12.7324 6.19588 12.6944 6.28706C12.6564 6.37824 12.6007 6.46101 12.5306 6.53061Z" fill="#60A5FA"/>
</svg>
